<?xml version="1.0" encoding="UTF-8"?>
<svg width="150px" height="150px" viewBox="0 0 150 150" version="1.1" xmlns="http://www.w3.org/2000/svg" xmlns:xlink="http://www.w3.org/1999/xlink">
    <!-- Generator: Sketch 63.1 (92452) - https://sketch.com -->
    <title>Artboard</title>
    <desc>Created with Sketch.</desc>
    <defs>
        <rect id="path-1" x="0.117221418" y="0.327062229" width="150" height="150" rx="8"></rect>
    </defs>
    <g id="Artboard" stroke="none" stroke-width="1" fill="none" fill-rule="evenodd">
        <g id="Group" transform="translate(-1.000000, -1.000000)">
            <g id="Mask-Copy" transform="translate(0.882779, 0.672938)">
                <mask id="mask-2" fill="white">
                    <use xlink:href="#path-1"></use>
                </mask>
                <use id="Mask" fill="#115CFA" xlink:href="#path-1"></use>
                <path d="M75.1204619,-23.6729378 C77.7239181,-23.6729378 79.7863963,-20.9721516 81.3417078,-17.4273697 C93.344655,-16.4145749 105.922391,-12.4646751 118.669183,-5.61143014 L118.669183,-5.61143014 L118.87205,-5.47639083 L119.277783,-5.20631221 C133.512264,1.8494917 148.18629,-11.6544392 151.939324,-15.4692997 C152.514113,-16.1107364 152.886035,-16.4820945 152.953658,-16.5496142 L152.953658,-16.5496142 L153.087198,-16.6721499 C153.86541,-17.327549 154.995474,-17.3204636 155.793792,-16.6508937 C156.672881,-15.9081775 156.740503,-14.5915442 155.996658,-13.7137887 L155.996658,-13.7137887 L153.562258,-10.9454829 C149.234435,-5.51015066 140.916899,7.31858373 148.118668,19.3708421 L148.118668,19.3708421 L148.79489,20.2485976 L147.138145,21.531471 L148.79489,20.2823574 C152.446491,25.1437726 156.368581,31.2205415 159.749693,38.3776249 C170.974984,41.9561666 174.998507,35.1366815 175.167563,34.832843 C175.167563,34.7990832 175.201374,34.7653234 175.201374,34.7653234 C177.331474,31.1867817 176.486197,26.3591264 173.240329,23.2869821 C170.738306,20.9237942 166.376672,20.7212352 165.024227,20.7212352 L165.024227,20.7212352 L164.855172,20.7212352 C160.358293,20.7212352 155.793792,19.978519 152.784602,14.8132654 C150.485446,10.8296058 151.094046,5.93443081 154.339914,2.62596773 C157.619592,-0.682495348 162.556016,-1.29017224 166.951461,1.14053533 C167.965795,1.68069257 168.303906,2.96356601 167.762928,3.97636083 C167.22195,4.98915565 165.937127,5.32675392 164.922794,4.78659668 C162.150282,3.26740445 159.310148,3.53748307 157.315292,5.56307271 C155.726169,7.18354442 154.813269,10.0193699 156.402392,12.7539159 C158.295815,15.9948594 160.86546,16.6362961 164.990416,16.6025363 C167.120517,16.6025363 172.259807,16.9401345 175.809974,20.0122788 L175.809974,20.0122788 L175.809974,-11.9582777 C175.809974,-13.1061118 176.756685,-14.051387 177.906263,-14.051387 C179.055842,-14.051387 180.002553,-13.1061118 180.002553,-11.9582777 L180.002553,-11.9582777 L180.002025,26.1897997 C180.00044,26.2894967 179.9941,26.3844462 179.968742,26.4604058 C181.050698,29.9376681 180.746397,33.7862884 178.852975,36.9597121 L178.852975,36.9597121 L178.830234,36.9988023 C178.319548,37.8640781 174.449215,43.6779178 165.835694,43.6779178 C164.652305,43.6779178 163.333671,43.5766383 161.947415,43.3065597 C165.70045,52.4892327 168.337717,63.1573382 168.405339,75.0070376 L168.405339,75.0070376 L168.405339,75.4459153 C168.405339,90.0301607 164.990416,104.040489 158.228192,117.004263 C151.80408,129.3266 142.4384,140.298544 131.179297,148.704741 L131.179297,148.704741 L130.383948,149.289627 C121.875465,155.481693 112.57601,160.176944 102.608902,163.221466 C104.333269,162.985148 106.125258,162.850108 107.917247,162.850108 C120.427361,162.850108 131.787897,168.859358 138.888232,178.413389 C139.496832,177.603153 140.173055,176.894196 140.883088,176.25276 C138.482499,174.969886 136.859565,172.437899 136.859565,169.534554 C136.859565,165.314576 140.308299,161.871073 144.534689,161.871073 C145.346156,161.871073 146.157623,162.006113 146.901467,162.242431 C146.96909,160.892038 147.27339,159.642925 147.780557,158.52885 C150.992613,151.270488 156.94337,150.055134 162.251715,149.481217 C164.009894,149.278658 169.926839,148.400902 173.037462,144.754841 C176.858119,140.231024 176.925741,133.647858 173.172707,129.394119 C172.395051,128.550124 172.462673,127.23349 173.341762,126.457014 C174.18704,125.680538 175.505674,125.748058 176.28333,126.625814 C181.42262,132.432504 181.388809,141.378858 176.215708,147.455627 C175.539485,148.232103 174.761829,148.941059 173.950363,149.548736 C176.080463,150.122653 178.379619,151.135448 180.475909,152.890959 C185.513765,157.043418 188.08341,163.964183 188.117221,173.518214 L188.117221,173.518214 L188.117221,173.551974 C188.117221,173.653253 188.08341,173.720773 188.08341,173.788292 C188.08341,173.822052 188.049599,173.889572 188.049599,173.957092 C188.015788,174.024611 188.015788,174.092131 187.981977,174.15965 C187.948166,174.22717 187.948166,174.29469 187.914355,174.362209 C187.880544,174.429729 187.846732,174.463489 187.812921,174.531009 L187.77911,174.589776 C187.756569,174.624786 187.734029,174.654795 187.711488,174.699808 C187.677677,174.767327 187.610055,174.801087 187.576244,174.868607 C187.542432,174.902367 187.47481,174.969886 187.440999,175.003646 C187.407188,175.071166 187.339566,175.104926 187.305755,175.138685 C187.271943,175.172445 187.204321,175.239965 187.136699,175.273725 C187.136699,175.273725 187.132942,175.277476 187.127933,175.282477 L187.102888,175.307485 C187.001454,175.341244 186.933832,175.408764 186.832399,175.442524 L186.832399,175.442524 L186.798588,175.442524 C186.663343,175.476284 186.56191,175.510044 186.460477,175.543803 C186.426665,175.577563 186.392854,175.577563 186.359043,175.577563 C186.223799,175.611323 186.122365,175.611323 185.987121,175.611323 L185.987121,175.611323 L185.860858,175.605521 C185.735651,175.594443 185.615199,175.569123 185.513765,175.543803 C185.479954,175.543803 185.412332,175.510044 185.378521,175.510044 C185.277087,175.476284 185.175654,175.442524 185.074221,175.375004 C185.04041,175.375004 184.972787,175.341244 184.938976,175.307485 C184.837543,175.273725 184.73611,175.172445 184.634676,175.104926 C184.600865,175.071166 184.567054,175.071166 184.533243,175.037406 C184.431809,174.936127 184.330376,174.801087 184.228943,174.666048 C184.195132,174.666048 184.195132,174.632288 184.195132,174.632288 C183.55272,173.585733 180.002553,172.20158 177.19623,171.593904 C166.30905,169.230716 164.043705,161.938593 164.381816,158.393811 C164.483249,157.245977 165.497583,156.401981 166.647161,156.503261 C167.796739,156.60454 168.642017,157.617335 168.540584,158.765169 C168.506772,158.832689 168.506772,159.440366 168.709639,160.318121 C169.216806,162.411231 171.110229,165.989772 178.041508,167.508964 L178.041508,167.508964 L178.10913,167.508964 C178.886786,167.677764 181.354998,168.251681 183.654154,169.331995 C183.079365,163.288986 181.11832,158.900209 177.80483,156.165663 C172.733162,151.979444 166.139994,153.194798 166.072372,153.194798 C165.835694,153.228558 165.599016,153.228558 165.396149,153.194798 C164.280383,153.431116 163.333671,153.566156 162.623638,153.633675 C157.044803,154.207593 153.62988,155.456706 151.49978,160.216842 C149.843035,163.930423 151.973135,168.285441 154.84708,170.446069 C156.33477,171.560144 160.223048,173.754533 164.550872,170.175991 C165.429961,169.433275 166.748594,169.568314 167.492439,170.446069 C168.236283,171.323825 168.101039,172.640458 167.22195,173.383174 C165.565205,174.767327 163.773216,175.645083 161.913604,176.050201 C164.618494,178.345869 166.444294,181.147935 167.323383,182.633367 C170.028273,187.292223 172.225996,189.89173 175.742352,190.161809 L175.742352,190.161809 L175.742352,175.982681 C175.742352,174.834847 176.689063,173.889572 177.838641,173.889572 C178.988219,173.889572 179.934931,174.834847 179.934931,175.982681 L179.934931,175.982681 L179.934931,191.81604 C179.968742,191.8498 179.968742,191.88356 179.968742,191.91732 C179.968742,192.119879 179.968742,192.322438 179.934931,192.524997 L179.934931,192.524997 L179.934931,193.200193 C179.934931,194.348027 178.988219,195.293302 177.838641,195.293302 L177.838641,195.293302 L128.23773,195.293302 C127.291018,195.293302 126.513363,194.685626 126.242874,193.84163 C126.175252,193.672831 126.073818,193.504032 126.040007,193.335232 C124.112773,185.874311 117.384361,180.675297 109.675425,180.675297 C102.777957,180.675297 96.6243336,184.861516 94.0546885,191.107084 L94.0546885,191.107084 L98.2810784,191.107084 C100.14069,186.617027 104.536135,183.612402 109.472559,183.612402 C115.017582,183.612402 119.818761,187.359743 121.205017,192.693796 C121.475506,193.80787 120.799284,194.955704 119.683517,195.225783 C119.514461,195.259543 119.345405,195.293302 119.17635,195.293302 C118.229639,195.293302 117.384361,194.685626 117.147683,193.74035 C116.234783,190.229328 113.090348,187.798621 109.472559,187.798621 C106.835291,187.798621 104.468513,189.081494 103.014635,191.107084 L103.014635,191.107084 L109.675425,191.107084 C110.825004,191.107084 111.771715,192.052359 111.771715,193.200193 C111.771715,194.348027 110.825004,195.293302 109.675425,195.293302 L109.675425,195.293302 L91.349799,195.293302 C90.200221,195.293302 89.2535096,194.348027 89.2535096,193.200193 L89.2535096,193.200193 L89.2535096,193.031394 C89.1520763,192.693796 89.1520763,192.356197 89.2535096,192.018599 C91.7555324,182.869686 100.106879,176.489079 109.607803,176.489079 C118.838239,176.489079 126.919096,182.430808 129.691608,191.107084 L129.691608,191.107084 L140.612599,191.107084 C136.217154,176.826677 122.963195,166.968807 107.815814,166.968807 C100.783101,166.968807 94.0546885,169.061917 88.3067983,173.045576 C87.2924647,174.22717 86.3119423,175.476284 85.365231,176.759157 C85.0609309,177.164275 84.7566308,177.603153 84.4861419,178.008271 C84.519953,182.02569 82.3560414,186.178149 77.994407,190.431887 C77.3858069,192.119879 77.0815068,193.132673 77.0815068,193.166433 L77.0815068,193.166433 L77.0341933,193.32441 C76.7526381,194.151192 76.0094955,194.719385 75.0866508,194.719385 C73.9370728,194.719385 72.9903614,193.77411 72.9903614,192.626276 L72.9903614,192.626276 L72.9903614,192.187398 C72.8889281,191.8498 72.7198725,191.410922 72.5508169,190.904525 C67.7158269,186.313188 65.3828597,181.823131 65.5857264,177.535633 C65.3828597,177.265555 65.2138041,176.995476 65.0109374,176.725397 C64.1656594,175.577563 63.2865703,174.463489 62.4074812,173.416934 C62.2384256,173.383174 62.06937,173.281895 61.9003144,173.180615 C56.1186131,169.129436 49.2887671,166.968807 42.1884321,166.968807 C30.1854849,166.968807 19.3659268,173.180615 13.178492,182.869686 C13.0770587,183.004725 13.0094364,183.139765 12.9080031,183.274804 C11.4203139,185.705511 10.2369247,188.305018 9.3578356,191.107084 L9.3578356,191.107084 L20.278827,191.107084 C23.0851499,182.430808 31.1660073,176.489079 40.3626317,176.489079 C49.8635561,176.489079 58.2487136,182.869686 60.7169253,192.018599 C60.7845475,192.322438 60.7845475,192.626276 60.7507364,192.896355 C60.7845475,192.997634 60.7845475,193.098914 60.7845475,193.200193 C60.7845475,194.348027 59.8378362,195.293302 58.6882581,195.293302 L58.6882581,195.293302 L50.3031006,195.293302 C50.2354784,195.327062 50.134045,195.327062 50.0326117,195.327062 C49.9649894,195.327062 49.8635561,195.293302 49.7959338,195.293302 L49.7959338,195.293302 L45.569544,195.293302 C44.4199659,195.293302 43.4732546,194.348027 43.4732546,193.200193 C43.4732546,192.052359 44.4199659,191.107084 45.569544,191.107084 L45.569544,191.107084 L46.7867443,191.107084 C45.3328661,189.081494 42.9660878,187.798621 40.3288205,187.798621 C36.7786531,187.798621 33.634219,190.195568 32.6875077,193.639071 C32.3832076,194.719385 31.2336295,195.394582 30.1178626,195.090743 C29.0359068,194.786905 28.3596844,193.639071 28.6639845,192.524997 C30.1178626,187.292223 34.9190415,183.612402 40.3626317,183.612402 C45.3328661,183.612402 49.7283116,186.617027 51.554112,191.107084 L51.554112,191.107084 L56.0171797,191.107084 C53.4137236,184.861516 47.293911,180.675297 40.3964428,180.675297 C32.6875077,180.675297 25.959095,185.874311 24.0318612,193.335232 C23.9304279,193.74035 23.69375,194.077949 23.4232611,194.348027 C23.0175276,194.921944 22.4089275,195.293302 21.6650829,195.293302 L21.6650829,195.293302 L-27.0229284,195.293302 C-27.496284,195.293302 -27.9358286,195.090743 -28.3077509,194.820665 C-29.0177844,194.483067 -29.5249512,193.77411 -29.5249512,192.930114 L-29.5249512,192.930114 L-29.5249512,175.982681 C-29.5249512,174.834847 -28.5782399,173.889572 -27.4286618,173.889572 C-26.2790838,173.889572 -25.3323724,174.834847 -25.3323724,175.982681 L-25.3323724,175.982681 L-25.3323724,190.600686 C-21.511716,190.566927 -19.2125599,187.93366 -16.3724259,183.038485 C-15.4933368,181.485533 -13.5322919,178.514668 -10.6245357,176.15148 C-12.8898807,175.881402 -15.0876034,174.936127 -17.0486483,173.315655 C-17.9277374,172.572939 -18.0629819,171.256305 -17.3191372,170.37855 C-16.5752926,169.500794 -15.256659,169.365755 -14.3775699,170.108471 C-10.0159356,173.687013 -6.12765688,171.492624 -4.67377876,170.37855 C-1.79983365,168.217921 0.33026684,163.896663 -1.32647799,160.149322 C-3.45657848,155.389186 -6.87150149,154.173833 -12.4503361,153.566156 C-13.1603696,153.498636 -14.1070809,153.363597 -15.2228479,153.127278 C-15.4257146,153.161038 -15.6285813,153.161038 -15.8652591,153.127278 C-15.9328814,153.093518 -22.5936718,151.911924 -27.6315285,156.098143 C-30.9112071,158.832689 -32.8384408,163.221466 -33.447041,169.230716 C-31.181696,168.184161 -28.7472954,167.610244 -27.9358286,167.441445 L-27.9358286,167.441445 L-27.8682064,167.441445 C-20.9031159,165.922253 -19.0435043,162.309951 -18.5363375,160.216842 C-18.3334708,159.305326 -18.3672819,158.69765 -18.3672819,158.66389 C-18.4687153,157.516056 -17.6234373,156.503261 -16.4738593,156.401981 C-15.3242812,156.300702 -14.3099477,157.144697 -14.2085143,158.292532 C-13.8704031,161.803554 -16.1357481,169.129436 -26.9891173,171.492624 C-29.761629,172.066541 -33.1089298,173.383174 -33.9203966,174.429729 C-34.1232634,174.767327 -34.4275634,175.037406 -34.7656746,175.239965 C-34.7994857,175.239965 -34.7994857,175.273725 -34.8332969,175.273725 C-34.9347302,175.341244 -35.0699747,175.375004 -35.171408,175.408764 C-35.2390303,175.442524 -35.2728414,175.476284 -35.3404636,175.476284 L-35.3404636,175.476284 L-35.3742748,175.476284 C-35.5095192,175.510044 -35.6785748,175.543803 -35.8138193,175.543803 C-36.1857416,175.543803 -36.5576639,175.442524 -36.8957751,175.239965 C-37.6396197,174.767327 -38.011542,173.889572 -37.8424864,173.045576 C-37.7748642,163.761624 -35.2390303,156.942139 -30.2687958,152.857199 C-28.1725064,151.135448 -25.8733503,150.088894 -23.7432498,149.514977 C-24.5547167,148.9073 -25.3323724,148.232103 -26.0085948,147.421867 C-31.1478849,141.345098 -31.181696,132.398744 -26.0762171,126.592054 C-25.3323724,125.748058 -24.0137388,125.646779 -23.1346497,126.423255 C-22.2893717,127.165971 -22.1879384,128.482604 -22.9655941,129.36036 C-26.7186283,133.614098 -26.6510061,140.197264 -22.7289163,144.619802 C-19.6182933,148.265863 -13.7013475,149.143618 -11.9431693,149.346177 C-6.63482366,149.920094 -0.717877847,151.135448 2.52798957,158.393811 C3.00134524,159.507885 3.30564531,160.756999 3.40707866,162.073632 C4.11711216,161.871073 4.86095678,161.736034 5.63861251,161.736034 C9.86500238,161.736034 13.3137365,165.179536 13.3137365,169.399515 C13.3137365,172.20158 11.7922362,174.632288 9.56070231,175.982681 C10.2707358,176.590358 10.9131471,177.299314 11.4879361,178.042031 C18.5882711,168.623039 29.8473737,162.715069 42.2560543,162.715069 C44.149477,162.715069 46.0428996,162.850108 47.9025112,163.120187 C30.219296,157.684855 14.2604478,147.016749 2.52798957,132.635063 C-10.7259691,116.396586 -18.0291707,96.03941 -18.0291707,75.310876 L-18.0291707,75.310876 L-18.0291707,74.9395179 C-17.9615485,63.4611766 -16.1357481,52.9281105 -12.4841472,43.1377605 C-14.0056476,43.441599 -15.4257146,43.5766383 -16.7105371,43.5766383 C-20.2607046,43.5766383 -22.931783,42.5976033 -24.7913945,41.5510487 C-28.0372619,39.728018 -29.4911401,37.2973104 -29.7278179,36.8584327 C-32.0945962,32.8072534 -31.9593517,27.7770391 -29.6601957,23.6583402 L-29.6601957,23.6583402 L-29.6601957,-11.4518803 C-29.6601957,-12.5997144 -28.7134843,-13.5449896 -27.5639063,-13.5449896 C-26.4143282,-13.5449896 -25.4676169,-12.5997144 -25.4676169,-11.4518803 L-25.4676169,-11.4518803 L-25.4676169,19.0332438 C-22.0188828,16.8050952 -17.6910596,16.5350166 -15.831448,16.5350166 L-15.831448,16.5350166 L-15.6962035,16.5350166 C-11.6388693,16.5350166 -9.10303534,15.8935799 -7.2434238,12.6863963 C-5.68811233,9.95185027 -6.56720142,7.11602477 -8.15632401,5.49555306 C-10.1173689,3.46996342 -12.9575029,3.1998848 -15.7638258,4.71907703 C-16.7781593,5.29299409 -18.0629819,4.92163599 -18.6039598,3.90884117 C-19.1787488,2.89604635 -18.8068265,1.61317291 -17.7924929,1.07301567 C-13.3970474,-1.35769189 -8.46062408,-0.78377483 -5.18094555,2.55844808 C-1.93507813,5.83315133 -1.32647799,10.7620861 -3.62563408,14.7457457 C-6.63482366,19.9447592 -11.3007581,20.6537155 -15.831448,20.6537155 L-15.831448,20.6537155 L-15.9922779,20.654291 C-17.472662,20.6674998 -21.6529271,20.92578 -24.081361,23.2194624 C-27.3272285,26.2916067 -28.1725064,31.119262 -26.0424059,34.6978037 C-26.0424059,34.7315635 -26.0085948,34.7315635 -26.0085948,34.7653234 C-25.8395392,35.0691618 -21.7822049,41.9561666 -10.4554801,38.2763454 C-7.44629052,31.6256594 -3.52420072,25.3125717 1.31078929,19.3033224 C5.19906797,12.7539159 5.13144573,5.29299409 1.07411146,-2.91064395 C-0.548822253,-6.18534721 -2.47605603,-8.91989322 -3.99755638,-10.8104436 L-3.99755638,-10.8104436 L-6.60101254,-13.7475485 L-6.60101254,-13.7475485 L-6.70650323,-13.8823768 C-7.33606627,-14.7555326 -7.23328047,-15.9790731 -6.39814583,-16.6846535 C-5.55286786,-17.3936099 -4.33566757,-17.3598501 -3.55801184,-16.583374 L-3.55801184,-16.583374 L-3.54369944,-16.5624144 C-3.46077986,-16.4571243 -3.07425275,-16.095155 -2.54367827,-15.5030596 C1.20935593,-11.6881991 15.9510038,1.88325153 30.2531071,-5.30759169 C31.1321962,-5.74646945 52.0274677,-16.583374 68.8315938,-17.3260902 C70.4207164,-20.9383918 72.4831947,-23.6729378 75.1204619,-23.6729378 Z M155.016136,176.826677 C149.640168,175.239965 143.892278,177.535633 141.322633,182.12697 C142.911755,184.895276 144.162767,187.8999 145.041856,191.073324 L145.041856,191.073324 L168.405339,191.073324 C166.275239,189.115254 164.82136,186.617027 163.739405,184.726476 C162.860316,183.207284 159.614448,178.17707 155.016136,176.826677 Z M8.91829105,181.823131 C6.41626825,177.535633 1.34460041,175.678843 -4.06517862,177.265555 C-8.6634908,178.582188 -11.9093582,183.646162 -12.7884473,185.165354 C-13.8027809,186.920865 -15.1214145,189.182774 -16.9810261,191.073324 L-16.9810261,191.073324 L5.03001237,191.073324 C5.94291258,187.798621 7.26154622,184.692717 8.91829105,181.823131 Z M75.0528397,170.446069 L75.0190286,170.446069 C75.0190286,170.479829 74.9852175,170.479829 74.9852175,170.479829 C74.8161619,170.581109 74.6471063,170.682388 74.4442396,170.817428 C74.004695,171.121266 73.4975282,171.492624 72.9903614,171.931502 C72.4155724,172.437899 71.8407834,173.011816 71.3336166,173.687013 C70.7250165,174.497249 70.2178497,175.442524 69.9473607,176.522838 C69.8797385,176.725397 69.8459274,176.927956 69.8121163,177.130515 C69.4401939,179.628743 70.5221498,182.363289 72.9903614,185.300394 C73.5313393,185.94183 74.1061284,186.583267 74.7823507,187.224704 C74.849973,187.325983 74.9514063,187.393503 75.0190286,187.461022 L75.0190286,187.461022 L75.0190286,187.528542 C75.0190286,187.528542 75.0528397,187.494782 75.0528397,187.494782 C75.0528397,187.494782 75.0866508,187.461022 75.0866508,187.461022 C75.2557064,187.325983 75.424762,187.157184 75.5600065,187.022145 C76.1686066,186.414468 76.7095845,185.806791 77.2167513,185.199114 C79.6173407,182.262009 80.6654854,179.561223 80.2935631,177.096755 C80.259752,177.029236 80.2259409,176.927956 80.2259409,176.860437 C80.0230742,175.746362 79.5159074,174.767327 78.9073073,173.889572 C78.4001405,173.180615 77.7915403,172.539179 77.1829402,171.999022 C76.7095845,171.593904 76.2362289,171.222546 75.8304954,170.952467 C75.5261954,170.749908 75.2895175,170.581109 75.0528397,170.446069 L75.0528397,170.446069 Z M144.467067,165.989772 C142.539833,165.989772 140.984522,167.576484 140.984522,169.467034 C140.984522,171.391345 142.539833,172.944297 144.467067,172.944297 C146.394301,172.944297 147.949612,171.391345 147.949612,169.467034 C147.949612,167.542724 146.394301,165.989772 144.467067,165.989772 Z M5.60480139,165.989772 C3.67756761,165.989772 2.12225614,167.542724 2.12225614,169.467034 C2.12225614,171.391345 3.67756761,172.944297 5.60480139,172.944297 C7.49822405,172.944297 9.08734664,171.391345 9.08734664,169.467034 C9.08734664,167.542724 7.53203517,165.989772 5.60480139,165.989772 Z M124.31564,148.299623 C111.670282,147.995784 100.14069,152.317042 89.9973543,161.229637 C86.4133757,164.369301 83.5732417,167.644004 81.4769523,170.37855 C82.0855524,171.087506 82.6603415,171.897742 83.1675082,172.775498 C83.8099195,171.931502 84.519953,171.053746 85.2976087,170.175991 C85.3314198,170.108471 85.3990421,170.040952 85.4666643,169.973432 C91.8231547,162.748829 101.729813,155.254147 116.200971,153.059758 C118.973483,151.641846 121.678373,150.021374 124.31564,148.299623 Z M60.4464363,161.195877 C50.2354784,152.249523 38.6720757,147.928265 25.9252839,148.299623 C28.52874,150.021374 31.2336295,151.608086 33.9723302,153.025999 C39.7878426,153.869994 47.0234221,155.929344 54.2251904,160.62196 C54.3266238,160.62196 54.4280571,160.65572 54.5294905,160.689479 L54.5294905,160.689479 L54.4956794,160.790759 C58.8235026,163.660344 63.1513258,167.475205 67.1072267,172.539179 C67.6143935,171.661423 68.1891825,170.884947 68.8315938,170.175991 C66.7353044,167.441445 63.9627927,164.268021 60.4464363,161.195877 Z M135.642365,139.420788 C132.261253,138.779351 126.614796,138.137915 119.615894,138.914391 C109.066825,140.095985 93.1755994,144.88988 77.1829402,160.925798 L77.1829402,160.925798 L77.1829402,166.867528 C77.5210514,167.036327 77.8929737,167.306406 78.2987071,167.576484 C80.4964298,164.740659 83.4041861,161.398436 87.089598,158.157492 C95.61,150.662811 109.878292,142.189094 129.623986,144.484762 C131.720275,142.89805 133.715131,141.210059 135.642365,139.420788 Z M30.8278961,138.914391 C23.69375,138.104155 17.9796709,138.779351 14.598559,139.454548 C16.5257928,141.243819 18.5544599,142.93181 20.6507493,144.552282 L20.6507493,144.552282 L20.6507493,144.518522 C40.464065,142.155334 54.7999794,150.662811 63.3203814,158.191252 C66.9381711,161.364676 69.8121163,164.639379 72.009839,167.441445 C72.3817613,167.171366 72.7198725,166.968807 73.0241726,166.800008 L73.0241726,166.800008 L73.0241726,160.689479 C63.9966038,151.709365 49.5930671,141.0075 30.8278961,138.914391 Z M144.703745,129.664198 C134.526598,126.828373 123.368929,128.313805 115.490938,130.204355 C109.675425,131.588508 104.840435,133.344019 101.96649,134.525613 C101.121212,134.930731 100.208312,135.302089 99.3292231,135.673447 C99.1939786,135.740967 99.1263564,135.774727 99.1263564,135.774727 L99.1263564,135.774727 L98.380269,136.067302 C91.1465191,138.851823 83.2903553,140.366063 75.0866508,140.366063 C66.5662488,140.366063 58.4177692,138.711832 50.9455119,135.740967 L50.9455119,135.740967 L50.9117008,135.808487 C50.8440785,135.774727 43.9466103,132.500024 34.5133081,130.238115 C26.7029396,128.381325 15.5790815,126.895892 5.40193468,129.697958 C5.50336804,129.832997 5.60480139,129.934277 5.70623475,130.069316 C7.3967907,132.128665 9.18878,134.120495 10.9469582,135.943526 C13.6180366,135.20081 20.9550494,133.580338 30.9631406,134.660652 C41.5122097,135.808487 57.0653244,140.298544 72.9227392,154.849029 L72.9227392,154.849029 L72.9227392,151.371767 C72.9227392,150.223933 73.8694505,149.278658 75.0190286,149.278658 C76.1686066,149.278658 77.1153179,150.223933 77.1153179,151.371767 L77.1153179,151.371767 L77.1153179,155.051588 C93.0741661,140.332303 108.694903,135.808487 119.311594,134.660652 C129.083008,133.614098 136.318587,135.09953 139.158721,135.876006 C141.119766,133.884176 142.945567,131.824827 144.703745,129.664198 Z M5.00837788,144.327062 C6.16484047,144.327062 7.11722142,145.230288 7.11722142,146.327062 C7.11722142,147.423836 6.16484047,148.327062 5.00837788,148.327062 L5.00837788,148.327062 L-0.773935044,148.327062 C-1.93039763,148.327062 -2.88277858,147.423836 -2.88277858,146.327062 C-2.88277858,145.230288 -1.93039763,144.327062 -0.773935044,144.327062 L-0.773935044,144.327062 Z M150.008378,144.327062 C151.16484,144.327062 152.117221,145.230288 152.117221,146.327062 C152.117221,147.423836 151.16484,148.327062 150.008378,148.327062 L150.008378,148.327062 L144.226065,148.327062 C143.069602,148.327062 142.117221,147.423836 142.117221,146.327062 C142.117221,145.230288 143.069602,144.327062 144.226065,144.327062 L144.226065,144.327062 Z M-5.88277858,144.327062 C-4.77820908,144.327062 -3.88277858,145.222493 -3.88277858,146.327062 C-3.88277858,147.431632 -4.77820908,148.327062 -5.88277858,148.327062 C-6.98734808,148.327062 -7.88277858,147.431632 -7.88277858,146.327062 C-7.88277858,145.222493 -6.98734808,144.327062 -5.88277858,144.327062 Z M156.117221,144.327062 C157.221791,144.327062 158.117221,145.222493 158.117221,146.327062 C158.117221,147.431632 157.221791,148.327062 156.117221,148.327062 C155.012652,148.327062 154.117221,147.431632 154.117221,146.327062 C154.117221,145.222493 155.012652,144.327062 156.117221,144.327062 Z M-0.934788038,138.327062 C0.19050747,138.327062 1.11722142,139.230288 1.11722142,140.327062 C1.11722142,141.423836 0.19050747,142.327062 -0.934788038,142.327062 L-0.934788038,142.327062 L-10.8307691,142.327062 C-11.9560646,142.327062 -12.8827786,141.423836 -12.8827786,140.327062 C-12.8827786,139.230288 -11.9560646,138.327062 -10.8307691,138.327062 L-10.8307691,138.327062 Z M169.117221,138.327062 C170.221791,138.327062 171.117221,139.222493 171.117221,140.327062 C171.117221,141.431632 170.221791,142.327062 169.117221,142.327062 C168.012652,142.327062 167.117221,141.431632 167.117221,140.327062 C167.117221,139.222493 168.012652,138.327062 169.117221,138.327062 Z M-19.8827786,138.327062 C-18.7782091,138.327062 -17.8827786,139.222493 -17.8827786,140.327062 C-17.8827786,141.431632 -18.7782091,142.327062 -19.8827786,142.327062 C-20.9873481,142.327062 -21.8827786,141.431632 -21.8827786,140.327062 C-21.8827786,139.222493 -20.9873481,138.327062 -19.8827786,138.327062 Z M161.065212,138.327062 C162.190507,138.327062 163.117221,139.230288 163.117221,140.327062 C163.117221,141.423836 162.190507,142.327062 161.065212,142.327062 L161.065212,142.327062 L151.169231,142.327062 C150.043935,142.327062 149.117221,141.423836 149.117221,140.327062 C149.117221,139.230288 150.043935,138.327062 151.169231,138.327062 L151.169231,138.327062 Z M169.034217,132.327062 C170.17651,132.327062 171.117221,133.230288 171.117221,134.327062 C171.117221,135.456094 170.17651,136.327062 169.034217,136.327062 L169.034217,136.327062 L156.200225,136.327062 C155.057933,136.327062 154.117221,135.423836 154.117221,134.327062 C154.117221,133.230288 155.057933,132.327062 156.200225,132.327062 L156.200225,132.327062 Z M-5.96578253,132.327062 C-4.82349004,132.327062 -3.88277858,133.19803 -3.88277858,134.327062 C-3.88277858,135.423836 -4.82349004,136.327062 -5.96578253,136.327062 L-5.96578253,136.327062 L-18.7997746,136.327062 C-19.9420671,136.327062 -20.8827786,135.423836 -20.8827786,134.327062 C-20.8827786,133.230288 -19.9420671,132.327062 -18.7997746,132.327062 L-18.7997746,132.327062 Z M14.3618812,80.0372518 C16.6272262,109.880939 40.5654984,133.782897 70.4545275,136.044805 L70.4545275,136.044805 Z M135.845232,80.0372518 L79.7525852,136.044805 C86.0414533,135.572168 92.0598325,134.120495 97.6724783,131.892347 C98.1458339,131.689788 99.0925453,131.25091 100.44499,130.710753 C120.08925,121.696879 134.154676,102.588817 135.845232,80.0372518 L135.845232,80.0372518 Z M84.9933087,0.600378091 C84.3847085,4.71907703 81.2402745,8.06129993 77.3181847,9.0065751 L77.3181847,9.0065751 L77.3181847,10.4920075 C89.8282987,10.8633656 101.797435,14.7795056 112.076015,21.8353095 C113.022726,22.4767462 113.259404,23.7933795 112.616993,24.7386546 C111.974582,25.6839298 110.655948,25.9202486 109.709237,25.2788119 C100.816912,19.1682831 90.6059544,15.5897414 79.8878297,14.7795056 L79.8878297,14.7795056 L97.1991226,32.0645372 C98.0105894,32.874773 98.0105894,34.1914063 97.1991226,35.0016422 C96.3876557,35.811878 95.0690221,35.811878 94.2575552,35.0016422 L94.2575552,35.0016422 L75.2218953,15.9948594 L55.6114463,35.3730003 C55.1719018,35.7781182 54.664735,35.9806772 54.1237571,35.9806772 C53.5827792,35.9806772 53.0418013,35.7781182 52.6360678,35.3730003 C51.824601,34.5627644 51.824601,33.2461311 52.6360678,32.4358953 L52.6360678,32.4358953 L70.4883386,14.7795056 C57.4710578,15.7585406 45.6033551,20.8562745 36.1362418,28.7560741 L36.1362418,28.7560741 L46.6514998,40.7408128 C47.3953444,41.5848085 47.3277222,42.9014418 46.4486331,43.6779178 C46.0428996,44.0155161 45.5357329,44.1843152 45.0623772,44.1843152 C44.4537771,44.1843152 43.878988,43.9479964 43.4732546,43.4753588 L43.4732546,43.4753588 L32.9918077,31.5243799 C22.4765497,41.5848085 15.5790815,55.3925779 14.3956923,70.7532993 L14.3956923,70.7532993 L36.6095975,48.5730928 C37.4210643,47.7628569 38.739698,47.7628569 39.5511648,48.5730928 C40.3626317,49.3833286 40.3626317,50.6999619 39.5511648,51.5101977 L39.5511648,51.5101977 L15.6128926,75.4121555 L75.1204619,134.829452 L134.628031,75.4121555 L110.486892,51.3076388 C109.675425,50.4974029 109.675425,49.1807696 110.486892,48.3705338 C111.298359,47.5602979 112.616993,47.5602979 113.42846,48.3705338 L113.42846,48.3705338 L135.912854,70.7532993 C134.864709,57.2493684 129.387308,44.4881536 120.190683,34.4277251 C119.413028,33.5837294 119.48065,32.2670961 120.325928,31.4906201 C121.171206,30.7141441 122.48984,30.7816637 123.267495,31.6256594 C133.715131,43.0702409 139.699699,57.7895256 140.206866,73.2177667 L140.206866,73.2177667 L142.607455,73.1164872 C143.3513,69.4029062 146.157623,66.4320414 149.775413,65.4192466 C147.679123,49.4846081 140.612599,35.1029216 130.131152,23.894659 C128.947763,24.671135 127.527696,25.1437726 125.972385,25.1437726 C124.755185,25.1437726 123.639418,24.873694 122.625084,24.3672965 L122.625084,24.3672965 L105.820958,43.5091186 C105.381413,43.9817562 104.806624,44.218075 104.231835,44.218075 C103.724669,44.218075 103.251313,44.0492759 102.845579,43.7116776 C101.96649,42.9689614 101.865057,41.6523281 102.642713,40.7745726 L102.642713,40.7745726 L119.48065,21.5989907 C118.702994,20.3836369 118.26345,18.999484 118.26345,17.4802918 C118.26345,16.264938 118.533939,15.1508637 119.041105,14.1380689 C109.20207,7.04850511 97.5710449,2.25460963 84.9933087,0.600378091 Z M166.110027,126.327062 C167.210747,126.327062 168.117221,127.230288 168.117221,128.327062 C168.117221,129.423836 167.210747,130.327062 166.110027,130.327062 L166.110027,130.327062 L161.124416,130.327062 C160.023696,130.327062 159.117221,129.423836 159.117221,128.327062 C159.117221,127.230288 160.023696,126.327062 161.124416,126.327062 L161.124416,126.327062 Z M-10.8899728,126.327062 C-9.7892534,126.327062 -8.88277858,127.230288 -8.88277858,128.327062 C-8.88277858,129.423836 -9.7892534,130.327062 -10.8899728,130.327062 L-10.8899728,130.327062 L-15.8755843,130.327062 C-16.9763038,130.327062 -17.8827786,129.423836 -17.8827786,128.327062 C-17.8827786,127.230288 -16.9763038,126.327062 -15.8755843,126.327062 L-15.8755843,126.327062 Z M163.90846,81.4889244 C160.831648,83.4807542 156.808125,84.7298678 153.900369,85.0674661 C152.074569,99.3478731 146.394301,112.885564 137.434354,124.228866 C141.457877,124.600224 144.805178,125.3767 147.476256,126.220696 C150.045901,122.642154 152.378869,118.928573 154.407536,115.046193 C159.918748,104.479367 163.096993,93.2035845 163.90846,81.4889244 Z M-13.7013475,81.2526056 C-12.6193917,97.4910826 -7.00674597,112.851804 2.69704517,126.153176 C5.40193468,125.30918 8.74923546,124.566464 12.7727586,124.195106 C3.77900097,112.851804 -1.90126701,99.2803534 -3.69325631,84.9661866 C-6.66863478,84.493549 -10.6921579,83.2106756 -13.7013475,81.2526056 Z M8.30969091,77.268946 C7.46441294,81.1175663 4.38760111,84.1221909 0.499322434,84.9324268 C2.39274509,99.3141133 8.44493538,112.885564 17.9796709,123.992547 C22.6456053,124.026307 28.0215732,124.566464 34.1413858,125.916857 C19.9069047,114.370996 10.608847,96.9509253 10.034058,77.3702255 L10.034058,77.3702255 Z M142.607455,77.268946 L140.173055,77.3702255 C139.598266,96.9171655 130.334019,114.303477 116.133349,125.849338 C122.219351,124.532704 127.595319,123.992547 132.227442,123.992547 C141.8298,112.851804 147.848179,99.2128338 149.741601,84.7636277 C146.157623,83.7845927 143.418922,80.8812475 142.607455,77.268946 L142.607455,77.268946 Z M-15.0125496,120.327062 C-13.8446106,120.327062 -12.8827786,121.230288 -12.8827786,122.327062 C-12.8827786,123.423836 -13.8446106,124.327062 -15.0125496,124.327062 L-15.0125496,124.327062 L-28.7530076,124.327062 C-29.9209465,124.327062 -30.8827786,123.456094 -30.8827786,122.327062 C-30.8827786,121.230288 -29.9209465,120.327062 -28.7530076,120.327062 L-28.7530076,120.327062 Z M177.98745,120.327062 C179.155389,120.327062 180.117221,121.230288 180.117221,122.327062 C180.117221,123.456094 179.155389,124.327062 177.98745,124.327062 L177.98745,124.327062 L164.246992,124.327062 C163.079053,124.327062 162.117221,123.423836 162.117221,122.327062 C162.117221,121.230288 163.079053,120.327062 164.246992,120.327062 L164.246992,120.327062 Z M177.97929,114.327062 C179.151704,114.327062 180.117221,115.230288 180.117221,116.327062 C180.117221,117.423836 179.151704,118.327062 177.97929,118.327062 L177.97929,118.327062 L167.255152,118.327062 C166.082739,118.327062 165.117221,117.423836 165.117221,116.327062 C165.117221,115.230288 166.082739,114.327062 167.255152,114.327062 L167.255152,114.327062 Z M-18.0207096,114.327062 C-16.8482958,114.327062 -15.8827786,115.230288 -15.8827786,116.327062 C-15.8827786,117.423836 -16.8482958,118.327062 -18.0207096,118.327062 L-18.0207096,118.327062 L-28.7448475,118.327062 C-29.9172613,118.327062 -30.8827786,117.423836 -30.8827786,116.327062 C-30.8827786,115.230288 -29.9172613,114.327062 -28.7448475,114.327062 L-28.7448475,114.327062 Z M177.973129,108.327062 C179.148922,108.327062 180.117221,109.230288 180.117221,110.327062 C180.117221,111.423836 179.148922,112.327062 177.973129,112.327062 L177.973129,112.327062 L170.261314,112.327062 C169.085521,112.327062 168.117221,111.423836 168.117221,110.327062 C168.117221,109.230288 169.085521,108.327062 170.261314,108.327062 L170.261314,108.327062 Z M-21.0268708,108.327062 C-19.8510783,108.327062 -18.8827786,109.230288 -18.8827786,110.327062 C-18.8827786,111.423836 -19.8510783,112.327062 -21.0268708,112.327062 L-21.0268708,112.327062 L-28.7386864,112.327062 C-29.9144789,112.327062 -30.8827786,111.423836 -30.8827786,110.327062 C-30.8827786,109.230288 -29.9144789,108.327062 -28.7386864,108.327062 L-28.7386864,108.327062 Z M-22.9045177,103.327062 C-21.7958221,103.327062 -20.8827786,104.230288 -20.8827786,105.327062 C-20.8827786,106.423836 -21.7958221,107.327062 -22.9045177,107.327062 L-22.9045177,107.327062 L-27.8610395,107.327062 C-28.9697351,107.327062 -29.8827786,106.456094 -29.8827786,105.327062 C-29.8827786,104.230288 -28.9697351,103.327062 -27.8610395,103.327062 L-27.8610395,103.327062 Z M178.095482,102.327062 C179.204178,102.327062 180.117221,103.230288 180.117221,104.327062 C180.117221,105.423836 179.204178,106.327062 178.095482,106.327062 L178.095482,106.327062 L173.138961,106.327062 C172.030265,106.327062 171.117221,105.423836 171.117221,104.327062 C171.117221,103.230288 172.030265,102.327062 173.138961,102.327062 L173.138961,102.327062 Z M-25.1069938,96.3270622 C-23.8872629,96.3270622 -22.8827786,97.230288 -22.8827786,98.3270622 C-22.8827786,99.4238364 -23.8872629,100.327062 -25.1069938,100.327062 L-25.1069938,100.327062 L-28.6585633,100.327062 C-29.8782943,100.327062 -30.8827786,99.4238364 -30.8827786,98.3270622 C-30.8827786,97.230288 -29.8782943,96.3270622 -28.6585633,96.3270622 L-28.6585633,96.3270622 Z M177.893006,96.3270622 C179.112737,96.3270622 180.117221,97.230288 180.117221,98.3270622 C180.117221,99.4238364 179.112737,100.327062 177.893006,100.327062 L177.893006,100.327062 L174.341437,100.327062 C173.121706,100.327062 172.117221,99.4238364 172.117221,98.3270622 C172.117221,97.230288 173.121706,96.3270622 174.341437,96.3270622 L174.341437,96.3270622 Z M75.2897362,53.3270622 C79.3578739,53.3270622 82.7257584,54.309743 85.4267351,56.3089899 C88.1277118,58.3082369 89.6282544,60.9513092 89.9617083,64.3059779 L89.9617083,64.3059779 L89.9617083,64.5431767 C89.9617083,65.8308273 88.9280012,66.8812791 87.6608763,66.8812791 C86.3937514,66.8812791 85.3600443,65.8308273 85.3600443,64.5431767 L85.3600443,64.5431767 L85.3600443,64.3059779 C85.1933174,62.0695321 84.1929556,60.3413695 82.4256499,59.0876044 C80.6583442,57.8338393 78.2908214,57.190014 75.3897723,57.190014 C71.9218517,57.190014 69.1208388,58.4098936 66.9867337,60.815767 C65.0193557,63.0183273 63.9856485,66.1019116 63.8189216,69.998749 L63.8189216,69.998749 L63.7855762,80.5710381 C63.7855762,84.9761586 64.8526287,88.3985984 66.9867337,90.8044719 C69.0874934,93.2103454 71.9218517,94.4302249 75.3897723,94.4302249 C78.2908214,94.4302249 80.6583442,93.7863996 82.4256499,92.5326345 C84.1262648,91.312755 85.0932812,89.686249 85.3266989,87.6192309 L85.3266989,87.6192309 L85.3266989,78.0296225 C79.4912555,78.3684779 77.2237689,83.5190803 77.1904235,83.5868514 C76.8903149,84.2984478 76.2234071,84.7050743 75.5231539,84.7050743 C75.2897362,84.7050743 75.022973,84.6373032 74.7895553,84.5356466 C73.8892297,84.1290201 73.4557396,83.0446827 73.8558843,82.0958875 C73.9892659,81.7909177 77.2904596,74.3022128 85.926916,74.3022128 L85.926916,74.3022128 L86.11848,74.301948 C86.7008086,74.2914448 93.5198915,73.9440777 96.7641681,68.9821827 C97.3310398,68.1350442 98.4647831,67.8978454 99.2984179,68.4738996 C100.165398,69.0499538 100.398816,70.2020622 99.7319079,71.0492008 C97.1309674,75.0476948 92.9961389,76.7419719 89.9617083,77.4874538 L89.9617083,77.4874538 L89.8616721,88.127514 C89.3614913,91.1094417 87.8942941,93.5153152 85.4267351,95.3451345 C82.7257584,97.3443815 79.3578739,98.3270622 75.2897362,98.3270622 C70.4546544,98.3270622 66.5532437,96.7005562 63.5855038,93.4814297 C60.617764,90.2623032 59.1172214,85.9588393 59.1172214,80.5710381 L59.1172214,80.5710381 L59.1505668,80.5710381 L59.1172214,71.0492008 C59.1172214,70.7103454 59.1505668,70.3714899 59.1505668,70.0326345 C59.3172938,65.1531164 60.784491,61.188508 63.5855038,58.1726948 C66.5532437,54.9535683 70.4546544,53.3270622 75.2897362,53.3270622 Z M-27.8827786,90.3270622 C-26.7782091,90.3270622 -25.8827786,91.2224927 -25.8827786,92.3270622 C-25.8827786,93.4316317 -26.7782091,94.3270622 -27.8827786,94.3270622 C-28.9873481,94.3270622 -29.8827786,93.4316317 -29.8827786,92.3270622 C-29.8827786,91.2224927 -28.9873481,90.3270622 -27.8827786,90.3270622 Z M178.117221,90.3270622 C179.221791,90.3270622 180.117221,91.2224927 180.117221,92.3270622 C180.117221,93.4316317 179.221791,94.3270622 178.117221,94.3270622 C177.012652,94.3270622 176.117221,93.4316317 176.117221,92.3270622 C176.117221,91.2224927 177.012652,90.3270622 178.117221,90.3270622 Z M-28.6025431,46.4740714 C-27.7945259,46.1715197 -26.9191738,46.339604 -26.3131608,46.9447075 C-23.8825218,49.4316243 -20.0343363,49.6218233 -19.2026526,49.6337886 L-19.0410052,49.6340563 C-17.896314,49.5668226 -16.9199598,50.4744778 -16.8862924,51.617451 C-16.8189576,52.7604243 -17.7279771,53.7353132 -18.8726682,53.7689301 C-19.0746726,53.7689301 -22.3740765,53.8697807 -25.7408152,52.3234051 L-25.7408152,52.3234051 L-25.7408152,86.2428169 C-25.7408152,87.3857901 -26.6835021,88.3270622 -27.8281932,88.3270622 C-28.9728844,88.3270622 -29.9155713,87.419407 -29.8819039,86.2764338 L-29.8819039,86.2764338 L-29.8819039,48.3902325 C-29.8819039,47.549811 -29.3768931,46.7766232 -28.6025431,46.4740714 Z M176.523165,46.9447075 C177.127773,46.339604 178.034684,46.1715197 178.807238,46.4740714 C179.579792,46.7766232 180.083632,47.549811 180.117221,48.3902325 L180.117221,48.3902325 L180.117221,86.2428169 C180.117221,87.3857901 179.176721,88.3270622 178.034684,88.3270622 C176.892648,88.3270622 175.952147,87.3857901 175.952147,86.2428169 L175.952147,86.2428169 L175.952147,52.3234051 C172.770002,53.7883925 169.64815,53.774983 169.156989,53.7695133 L169.099928,53.7689301 C167.957891,53.7353132 167.084569,52.7604243 167.118159,51.617451 C167.185337,50.5080947 168.092249,49.6340563 169.200696,49.6340563 L169.200696,49.6340563 L169.437848,49.6337886 C170.285586,49.6218233 174.098163,49.4316243 176.523165,46.9447075 Z M-1.5293447,69.2003473 C-2.27318932,69.2003473 -3.15227841,69.3016267 -4.09898974,69.5041857 C-8.39300185,70.3819412 -13.836592,73.0827274 -13.9042142,75.0407974 L-13.9042142,75.0407974 L-13.9042142,75.1420769 C-13.836592,77.1001469 -8.39300185,79.800933 -4.09898974,80.7124484 C-3.18608953,80.9150073 -2.30700044,81.0162868 -1.5293447,81.0162868 C-0.95455568,81.0162868 -0.413577777,80.9150073 0.093589007,80.779968 C2.56180069,80.0710117 4.38760111,77.8091032 4.38760111,75.108317 C4.38760111,72.4075309 2.56180069,70.1456224 0.093589007,69.4366661 C-0.447388896,69.2678669 -0.95455568,69.2003473 -1.5293447,69.2003473 Z M152.41268,69.1665874 C151.601213,69.1665874 150.823557,69.3353866 150.113524,69.639225 C147.983423,70.5507404 146.495734,72.6438496 146.495734,75.0745572 C146.495734,77.5052648 147.983423,79.5983741 150.113524,80.5098894 C150.823557,80.8137279 151.601213,80.982527 152.41268,80.982527 C153.02128,80.982527 153.663691,80.9150073 154.306102,80.8137279 C158.870604,80.0710117 164.043705,76.9988674 164.111327,75.108317 L164.111327,75.108317 L164.111327,75.0070376 C164.009894,73.1502471 158.870604,70.0781028 154.306102,69.3353866 C153.663691,69.2341071 153.02128,69.1665874 152.41268,69.1665874 Z M19.6026046,24.4010564 C9.45926895,35.4742797 2.56180069,49.5858876 0.499322434,65.2166876 C4.45522335,66.0269235 7.53203517,69.1328276 8.34350203,73.0827274 L8.34350203,73.0827274 L10.034058,73.1840069 C10.6426581,55.5951368 18.2501599,39.7617778 30.1854849,28.384716 L30.1854849,28.384716 L27.1762953,24.9412136 C26.1957728,25.4138512 25.0800059,25.6839298 23.8966167,25.6839298 C22.3074941,25.6839298 20.853616,25.2112922 19.6026046,24.4010564 Z M7.32916846,2.28836946 C9.08734664,9.24289389 8.20825755,15.8598201 4.69190118,21.6665104 L4.69190118,21.6665104 L4.52284559,21.9028291 C-6.56720142,35.609319 -12.5517695,51.0375601 -13.7351586,68.862749 C-10.7259691,66.9384388 -6.73625702,65.6555654 -3.72706743,65.1829278 C-1.59696694,48.3030141 5.84147923,33.0435722 16.8977151,21.1601129 C16.4581706,20.181078 16.2214927,19.1345233 16.2214927,18.020449 C16.2214927,16.5012568 16.6948484,15.0495842 17.4725041,13.8679902 L17.4725041,13.8679902 Z M141.965044,2.32212929 L132.362686,13.2603133 C133.140342,14.4419073 133.613698,15.8935799 133.613698,17.4465319 C133.613698,18.5943661 133.343209,19.7084404 132.869853,20.6874754 C144.128956,32.6046944 151.736457,48.0329355 153.900369,65.1154082 C156.774314,65.4530064 160.764026,66.70212 163.807027,68.66019 C162.08266,48.9444509 153.088902,33.1110918 145.413778,22.8818641 L145.413778,22.8818641 L144.534689,21.7002702 C141.018333,15.8598201 140.139244,9.27665372 141.965044,2.32212929 L141.965044,2.32212929 Z M20.4906105,28.9717172 C21.2811875,28.1179561 22.6561041,28.1179561 23.481054,28.9375667 C24.306004,29.7230269 24.3403769,31.0890446 23.5154269,31.9086552 C23.4123082,32.0111065 11.3130422,44.476018 9.35378608,61.4487879 C9.25066733,62.5416021 8.32259864,63.3270622 7.25703828,63.3270622 L7.25703828,63.3270622 L7.01642788,63.3270622 C5.84774878,63.1904605 5.02279882,62.1659472 5.12591757,61.0048321 C7.24810132,42.932418 19.438868,30.0421013 20.443274,29.0194436 Z M126.753179,28.9245939 C127.577857,28.1054875 128.917958,28.1396169 129.742636,28.9587233 C130.292421,29.5047942 142.971844,42.5422376 145.102261,60.9721314 C145.239708,62.1325321 144.41503,63.1905445 143.246736,63.3270622 L143.246736,63.3270622 L143.006205,63.3270622 C141.940996,63.3270622 141.047595,62.5420853 140.910149,61.4499434 C138.951539,44.4876153 126.856264,32.0303723 126.718817,31.8938545 C125.89414,31.0747481 125.928501,29.7437003 126.753179,28.9245939 Z M-17.3827786,24.3270622 C-13.7795177,24.3270622 -10.8827786,27.2591274 -10.8827786,30.8270622 C-10.8827786,34.4303231 -13.7795177,37.3270622 -17.3827786,37.3270622 C-20.9860395,37.3270622 -23.8827786,34.394997 -23.8827786,30.8270622 C-23.8827786,27.2591274 -20.9860395,24.3270622 -17.3827786,24.3270622 Z M166.617221,24.3270622 C170.220482,24.3270622 173.117221,27.2591274 173.117221,30.8270622 C173.117221,34.4303231 170.220482,37.3270622 166.617221,37.3270622 C163.013961,37.3270622 160.117221,34.394997 160.117221,30.8270622 C160.117221,27.2238014 163.049287,24.3270622 166.617221,24.3270622 Z M-17.3827786,28.707497 C-18.5485395,28.707497 -19.5023438,29.6613014 -19.5023438,30.8270622 C-19.5023438,31.9928231 -18.5485395,32.9466274 -17.3827786,32.9466274 C-16.2170177,32.9466274 -15.2632134,31.9928231 -15.2632134,30.8270622 C-15.2632134,29.6613014 -16.2170177,28.707497 -17.3827786,28.707497 Z M166.617221,28.707497 C165.451461,28.707497 164.497656,29.6613014 164.497656,30.8270622 C164.497656,32.0281492 165.451461,32.9819535 166.617221,32.9466274 C167.782982,32.9466274 168.736787,31.9928231 168.736787,30.8270622 C168.736787,29.6613014 167.782982,28.707497 166.617221,28.707497 Z M65.1123707,0.600378091 C52.3655789,2.32212929 40.6331206,7.21730425 30.7264628,14.4756671 C31.2674407,15.5222218 31.6055519,16.7375756 31.6055519,18.020449 C31.6055519,19.5396412 31.1321962,20.9913138 30.3545405,22.1729078 L30.3545405,22.1729078 L33.3299189,25.5826503 C44.149477,16.5350166 57.9444135,10.8971254 73.0241726,10.4244878 L73.0241726,10.4244878 L73.0241726,8.97281527 C68.899216,8.16257942 65.6871597,4.78659668 65.1123707,0.600378091 Z M23.8628056,14.5769466 L23.6261278,14.5769466 C22.0708163,14.6782261 20.7859938,15.8260602 20.4816937,17.3114926 C20.4816937,17.4127721 20.4478826,17.4802918 20.4478826,17.5815712 C20.4140715,17.7503704 20.4140715,17.8854097 20.4140715,18.0542088 C20.4140715,19.5058814 21.3607828,20.7887548 22.6117942,21.2613924 C22.9837165,21.3964317 23.4232611,21.4977112 23.8628056,21.4977112 L23.8628056,21.4977112 L24.1332946,21.4977112 C25.688606,21.3964317 26.9734286,20.2485976 27.2777286,18.7631652 C27.3115398,18.5268464 27.3453509,18.2905276 27.3453509,18.0542088 C27.3453509,17.7503704 27.2777286,17.4465319 27.2101064,17.1426935 C26.804373,15.6572611 25.4519282,14.5769466 23.8628056,14.5769466 L23.8628056,14.5769466 Z M126.14144,14.0030295 L125.701896,14.0030295 C124.112773,14.104309 122.827951,15.285903 122.523651,16.8050952 C122.48984,17.041414 122.456028,17.243973 122.456028,17.4802918 C122.456028,17.6828507 122.48984,17.9191695 122.523651,18.1217285 C122.79414,19.6071609 124.045151,20.7887548 125.600463,20.9237942 L125.600463,20.9237942 L125.938574,20.9237942 C126.310496,20.9237942 126.682418,20.8562745 127.020529,20.754995 C128.406785,20.2823574 129.421119,18.9657242 129.421119,17.4465319 C129.421119,17.3790123 129.387308,17.3114926 129.421119,17.2777328 C129.421119,17.0751738 129.387308,16.9063747 129.353497,16.7038157 C129.015386,15.2183833 127.696752,14.104309 126.14144,14.0030295 L126.14144,14.0030295 Z M67.2086601,-13.0048323 C51.5879231,-11.6544392 32.2817742,-1.62777051 32.0789075,-1.52649103 C28.6977956,0.161500336 25.113817,1.00549602 21.3945939,1.00549602 C17.4725041,1.00549602 13.4151699,0.0602208536 9.25640224,-1.79656965 L9.25640224,-1.79656965 L20.6169382,11.1334442 C21.5974607,10.6608066 22.7132276,10.390728 23.8966167,10.390728 C25.3166837,10.390728 26.6015063,10.7620861 27.7510843,11.4372827 C38.469209,3.46996342 51.2836231,-1.89784913 65.179993,-3.61960033 C65.5181042,-6.0503079 66.1943265,-9.59508977 67.2086601,-13.0048323 Z M82.7955859,-13.072352 C83.8099195,-9.62884959 84.4861419,-6.11782755 84.8242531,-3.65336015 C98.5515674,-1.96536879 111.163115,3.1998848 121.813617,10.9646451 C122.997006,10.2219289 124.383262,9.78305113 125.904763,9.78305113 C127.088152,9.78305113 128.170108,10.0193699 129.15063,10.4920075 L129.15063,10.4920075 L139.970188,-1.83032948 C135.845232,0.0602208536 131.754086,1.00549602 127.831996,1.00549602 C124.112773,1.00549602 120.528795,0.161500336 117.181494,-1.52649103 L117.181494,-1.52649103 L116.944816,-1.66153034 L116.505272,-1.96536879 C104.97568,-8.14341719 93.6489551,-11.8569982 82.7955859,-13.072352 Z M75.0190286,-19.4529594 C73.3960949,-18.7777628 70.2854719,-10.337806 69.3725717,-4.02471826 C69.2035161,-2.87688413 69.1020828,-1.83032948 69.0682716,-0.918814139 C69.0682716,-0.581215866 69.1020828,-0.209857765 69.169705,0.127740508 C69.6768718,2.86228652 72.0774612,4.95539582 74.9852175,4.95539582 C77.8929737,4.95539582 80.2935631,2.86228652 80.8007299,0.127740508 C80.8683521,-0.209857765 80.9021633,-0.547456039 80.9021633,-0.918814139 C80.9021633,-1.79656965 80.8007299,-2.87688413 80.6316743,-4.05847808 C79.7525852,-10.0002077 76.8786401,-18.744003 75.0190286,-19.4529594 Z M161.489585,-14.0704429 C161.726792,-15.1276028 162.743396,-15.7883277 163.827773,-15.6561827 C164.302188,-15.5901103 168.470263,-14.9624216 170.740678,-11.6587969 C172.163923,-9.61054959 172.468905,-7.13283108 171.723395,-4.22564137 C171.486188,-3.30062646 170.639018,-2.67293777 169.690188,-2.67293777 L169.690188,-2.67293777 L169.656162,-2.67538515 C169.101485,-2.71213816 165.294362,-2.87422839 162.845056,-5.77834497 C161.150717,-7.82659227 160.710189,-10.601637 161.489585,-14.0704429 Z M-13.5696837,-15.6568344 C-12.4811579,-15.788986 -11.460665,-15.09519 -11.2565664,-14.0379771 C-10.4741886,-10.602035 -10.9164021,-7.79381304 -12.6172236,-5.74546293 C-15.0664066,-2.77205149 -19.0123124,-2.67293777 -19.454526,-2.67293777 L-19.454526,-2.67293777 L-19.621444,-2.67970943 C-20.5049157,-2.75147424 -21.2714035,-3.38616784 -21.4955117,-4.22571931 C-22.2438732,-7.13305494 -21.9037089,-9.61089782 -20.5090353,-11.6592479 C-18.1959181,-14.9630384 -14.0459137,-15.5907586 -13.5696837,-15.6568344 Z M-15.0664066,-10.932414 C-15.7467351,-10.602035 -16.4950966,-10.0734285 -17.005343,-9.34659458 C-17.4135402,-8.75191229 -17.6516552,-7.99204047 -17.6516552,-7.13305494 C-17.005343,-7.36432028 -16.3250144,-7.72773723 -15.8487844,-8.32241952 C-15.338538,-8.98317762 -15.0664066,-9.84216315 -15.0664066,-10.932414 Z M165.386566,-10.9319995 C165.386566,-9.84180332 165.65766,-8.9828609 166.199848,-8.32213597 C166.674264,-7.72748352 167.351999,-7.36408481 167.961962,-7.13283108 C167.961962,-7.9917735 167.724754,-8.71857093 167.318113,-9.34625962 C166.809811,-10.073057 166.064301,-10.601637 165.386566,-10.9319995 Z M4.1529349,-24.6420731 C6.30763151,-25.8498228 10.0698002,-26.6214407 15.7472547,-23.2665803 C18.585982,-21.5556015 20.7748801,-19.5091367 21.151097,-19.1401021 C26.1673219,-14.8023265 30.419302,-14.7750663 30.8651419,-14.7784938 L30.898534,-14.7787836 C31.92458,-14.8123322 32.8138198,-14.1749088 33.0532306,-13.2019993 C33.2926413,-12.2290897 32.8480214,-11.2561802 31.92458,-10.8200484 C28.6070312,-9.27681264 25.5630948,-8.67293777 22.7927706,-8.67293777 C17.5257344,-8.67293777 13.3873489,-10.9206942 10.4802186,-13.2690965 C5.82881004,-17.0265401 3.4347027,-21.7568932 3.3320981,-21.9581848 C2.85327664,-22.9310943 3.19529197,-24.1052954 4.1529349,-24.6420731 Z M135.520285,-23.2451106 C141.198237,-26.6285346 144.926532,-25.8580519 147.081417,-24.6185798 C148.039144,-24.0825918 148.381189,-22.9101181 147.902326,-21.9386399 C147.799712,-21.7376445 145.405395,-17.0142505 140.753579,-13.2623347 C137.846193,-10.9173874 133.67324,-8.67293777 128.439947,-8.67293777 C125.703584,-8.67293777 122.659381,-9.27592423 119.307336,-10.8168896 C118.418019,-11.2188806 117.939155,-12.223858 118.178587,-13.1953362 C118.418019,-14.1333152 119.341541,-14.8033001 120.333472,-14.7363016 C120.572904,-14.7363016 124.91688,-14.6358039 130.115969,-19.1247031 C130.492219,-19.4931948 132.681309,-21.536649 135.520285,-23.2451106 Z M142.771646,-21.536649 C139.214375,-21.3691527 134.665172,-17.7177347 133.057559,-16.1432701 L133.057559,-16.1432701 L132.954945,-16.0427723 C131.313127,-14.6358039 129.705514,-13.563828 128.268924,-12.8268445 C131.757786,-12.759846 135.041422,-13.9658189 138.119829,-16.4447633 C140.206306,-18.1532249 141.74551,-20.0961813 142.771646,-21.536649 Z M8.49652964,-21.5556015 C10.7196293,-18.301387 15.6104486,-12.7658674 22.9979798,-12.8329646 C21.5273138,-13.6045825 19.9198418,-14.6445892 18.3123697,-16.0536306 L18.3123697,-16.0536306 L18.2097651,-16.1542764 C16.602293,-17.7310607 12.0534891,-21.3878585 8.49652964,-21.5556015 Z M-28.529713,-43.5433885 C-27.7178737,-43.8430462 -26.8045545,-43.6099791 -26.2295016,-42.9773684 L-26.2295016,-42.9773684 L-12.3944065,-27.461757 C-11.6502204,-26.6293744 -11.7178737,-25.3308576 -12.5973663,-24.5650656 C-13.4430323,-23.8325689 -14.7622712,-23.8991595 -15.5402839,-24.7648374 L-15.5402839,-24.7648374 L-25.722102,-36.1518312 L-25.722102,-19.7372466 C-25.722102,-18.6052063 -26.6692479,-17.6729378 -27.8193536,-17.6729378 C-28.9694593,-17.6729378 -29.8827786,-18.6052063 -29.8827786,-19.7372466 L-29.8827786,-19.7372466 L-29.8827786,-41.6122609 C-29.8827786,-42.4779388 -29.3415524,-43.2437308 -28.529713,-43.5433885 Z M61.9940613,-30.4850405 C65.724889,-31.0867138 68.4563879,-30.0603299 68.7561865,-29.9541522 C69.8221373,-29.5294416 70.3884237,-28.2553099 69.9886921,-27.1227483 C69.5889606,-25.9901868 68.4230769,-25.3885134 67.3571262,-25.813224 C66.9907056,-25.9547942 58.9960748,-28.7861981 52.9001688,-18.6639291 C52.5004373,-18.0268633 51.834218,-17.6729378 51.1679988,-17.6729378 C50.8015782,-17.6729378 50.4018467,-17.7791154 50.0687371,-18.0268633 C49.1027192,-18.6639291 48.8362315,-20.008846 49.4358288,-21.0352299 C53.566388,-27.8659918 58.5297213,-29.9541522 61.9940613,-30.4850405 Z M80.4488676,-29.9289086 C84.3454731,-31.4520495 93.4042481,-31.5583151 99.7986776,-21.0380165 C100.398155,-20.0462038 100.131721,-18.6647504 99.1658955,-18.0271566 C98.8328523,-17.7792034 98.4332004,-17.6729378 98.0668529,-17.6729378 C97.4007665,-17.6729378 96.7346801,-18.0271566 96.3350283,-18.6647504 C90.2070334,-28.7954084 82.2139966,-25.9616579 81.8809534,-25.8199704 C80.8152152,-25.4303297 79.649564,-25.9970798 79.2499121,-27.13058 C78.8502603,-28.2640802 79.3831294,-29.503846 80.4488676,-29.9289086 Z M176.466721,-42.9764765 C177.041337,-43.6098984 177.953962,-43.8432644 178.765184,-43.5432224 C179.576406,-43.2431804 180.117221,-42.4764065 180.117221,-41.6096187 L180.117221,-41.6096187 L180.117221,-19.7398935 C180.117221,-18.6064016 179.170795,-17.6729378 178.021564,-17.6729378 C176.872332,-17.6729378 175.925906,-18.6064016 175.925906,-19.7398935 L175.925906,-19.7398935 L175.925906,-36.1755254 L165.751825,-24.7739308 C164.974404,-23.907143 163.656167,-23.807129 162.844945,-24.5739029 C161.966121,-25.3073388 161.864718,-26.6075206 162.642139,-27.4743085 L162.642139,-27.4743085 Z M-9.88277858,-22.6729378 C-8.77820908,-22.6729378 -7.88277858,-21.7775073 -7.88277858,-20.6729378 C-7.88277858,-19.5683683 -8.77820908,-18.6729378 -9.88277858,-18.6729378 C-10.9873481,-18.6729378 -11.8827786,-19.5683683 -11.8827786,-20.6729378 C-11.8827786,-21.7775073 -10.9873481,-22.6729378 -9.88277858,-22.6729378 Z M159.117221,-22.6729378 C160.221791,-22.6729378 161.117221,-21.7775073 161.117221,-20.6729378 C161.117221,-19.5683683 160.221791,-18.6729378 159.117221,-18.6729378 C158.012652,-18.6729378 157.117221,-19.5683683 157.117221,-20.6729378 C157.117221,-21.7775073 158.012652,-22.6729378 159.117221,-22.6729378 Z M116.522657,-43.5129797 C117.030445,-44.5572884 118.282988,-44.961537 119.332416,-44.4562263 C124.64726,-41.8622982 127.084641,-36.7418168 125.764393,-31.0823374 C124.173325,-24.2437998 118.486103,-20.6729378 113.679046,-20.6729378 L113.679046,-20.6729378 L113.269778,-20.6772675 C105.568703,-20.8412945 102.123083,-25.6371794 99.494844,-30.1727782 C98.6146787,-31.6887102 95.3648376,-36.7081295 90.7608961,-38.0556246 C85.0736742,-39.7063061 79.0140747,-37.0786906 76.6443989,-31.9245219 C76.3058738,-31.1833996 75.5611186,-30.7454636 74.8163633,-30.7117763 L74.8163633,-30.7117763 L74.5793958,-30.7117763 C73.8346405,-30.7454636 73.0898853,-31.1833996 72.7513602,-31.9245219 C70.3816844,-37.0786906 64.3220849,-39.7063061 58.634863,-38.0556246 C54.0309215,-36.7418168 50.7810804,-31.6887102 49.9009151,-30.1727782 C47.2265667,-25.5912949 43.7059056,-20.6729378 35.8182705,-20.6729378 L35.8182705,-20.6729378 L35.7167129,-20.6729378 C29.9617861,-20.7066251 25.0531719,-24.4122367 23.5636614,-29.9032792 C22.344971,-34.350013 23.3605464,-40.4811158 29.894081,-44.3551642 C30.9096564,-44.961537 32.1621993,-44.6246632 32.7715445,-43.6477292 C33.3808897,-42.6371079 33.0423646,-41.3569876 32.0606417,-40.7843022 C26.3734199,-37.4155644 27.2197326,-32.4635199 27.6259628,-31.0149627 C28.438423,-27.9494113 31.282034,-24.8501726 35.7505655,-24.8164852 L35.7505655,-24.8164852 L35.8182705,-24.8164852 C40.9638522,-24.8164852 43.468938,-27.4441007 46.2786964,-32.2613956 C47.6666494,-34.6195121 51.5258357,-40.3463662 57.4500251,-42.0644225 C63.9158547,-43.9509156 70.754062,-41.6938613 74.6809533,-36.7418168 C78.6078446,-41.6938613 85.4460518,-43.9509156 91.9118815,-42.0644225 C97.8360709,-40.3463662 101.695257,-34.6195121 103.08321,-32.2613956 C105.892969,-27.4441007 108.398054,-24.8164852 113.645194,-24.8164852 C117.741347,-24.8164852 120.855779,-28.5220967 121.668239,-32.025584 C122.074469,-33.811015 122.514552,-38.2240615 117.470527,-40.7169274 C116.4211,-41.2222381 116.014869,-42.468671 116.522657,-43.5129797 Z M147.489894,-35.0663602 C147.727299,-36.1262134 148.744747,-36.7886217 149.830025,-36.6561401 C150.304834,-36.5898992 154.476371,-35.9606114 156.748672,-32.64857 C158.173099,-30.5951043 158.478334,-28.0779528 157.69829,-25.2295972 C157.460886,-24.3022256 156.613012,-23.6729378 155.663394,-23.6729378 L155.663394,-23.6729378 L155.627029,-23.673134 C155.040324,-23.6791176 151.231579,-23.8416208 148.846492,-26.7531363 C147.150745,-28.8066019 146.70985,-31.5887167 147.489894,-35.0663602 Z M0.430316346,-36.6568344 C1.51884209,-36.788986 2.50531855,-36.09519 2.74343356,-35.0379771 C3.52581144,-31.602035 3.08359785,-28.793813 1.38277637,-26.7454629 C-1.06640656,-23.7720515 -5.01231239,-23.6729378 -5.45452597,-23.6729378 L-5.45452597,-23.6729378 L-5.62144396,-23.6797094 C-6.50491565,-23.7514742 -7.2714035,-24.3861678 -7.49551175,-25.2257193 C-8.2438732,-28.1330549 -7.9037089,-30.6108978 -6.50903529,-32.6592479 C-4.19591808,-35.9630384 -0.045913668,-36.5907586 0.430316346,-36.6568344 Z M75.1172214,-28.6729378 C76.2217909,-28.6729378 77.1172214,-27.7775073 77.1172214,-26.6729378 C77.1172214,-25.5683683 76.2217909,-24.6729378 75.1172214,-24.6729378 C74.0126519,-24.6729378 73.1172214,-25.5683683 73.1172214,-26.6729378 C73.1172214,-27.7775073 74.0126519,-28.6729378 75.1172214,-28.6729378 Z M37.6172214,-38.6726122 C40.6471615,-38.6726122 43.1172214,-36.2026254 43.1172214,-33.172775 C43.1172214,-30.1429246 40.6471615,-27.6729378 37.6172214,-27.6729378 C34.5872813,-27.6729378 32.1172214,-30.1429246 32.1172214,-33.172775 C32.1172214,-36.2355586 34.5872813,-38.7055454 37.6172214,-38.6726122 Z M113.617221,-38.6729378 C116.647162,-38.6729378 119.117221,-36.2028779 119.117221,-33.1729378 C119.117221,-30.1429977 116.647162,-27.6729378 113.617221,-27.6729378 C110.587281,-27.6729378 108.117221,-30.1429977 108.117221,-33.1729378 C108.117221,-36.2028779 110.587281,-38.6729378 113.617221,-38.6729378 Z M151.356197,-31.9199209 C151.356197,-30.8269472 151.627516,-29.9658164 152.170155,-29.3034082 C152.644965,-28.7072407 153.323263,-28.3429161 153.933732,-28.1110732 C153.933732,-28.972204 153.696328,-29.7008531 153.289348,-30.330141 C152.814539,-31.0587901 152.068411,-31.5887167 151.356197,-31.9199209 Z M-1.10042298,-31.932414 C-1.78075158,-31.602035 -2.52911303,-31.0734285 -3.03935947,-30.3465946 C-3.44755663,-29.7519123 -3.68567163,-28.9920405 -3.68567163,-28.1330549 C-3.03935947,-28.3643203 -2.35903088,-28.7277372 -1.88280087,-29.3224195 C-1.33853799,-29.9831776 -1.10042298,-30.8421632 -1.10042298,-31.932414 Z M37.6172214,-34.6218339 C36.8268023,-34.6218339 36.1681196,-33.9631708 36.1681196,-33.172775 C36.1681196,-32.3823792 36.8268023,-31.7237161 37.6172214,-31.7237161 C38.4076406,-31.7237161 39.0663232,-32.3823792 39.0663232,-33.172775 C39.0663232,-33.9631708 38.4076406,-34.6218339 37.6172214,-34.6218339 Z M113.617221,-34.6220396 C112.826802,-34.6220396 112.16812,-33.9633569 112.16812,-33.1729378 C112.16812,-32.3825186 112.826802,-31.723836 113.617221,-31.723836 C114.407641,-31.723836 115.066323,-32.3825186 115.066323,-33.1729378 C115.066323,-33.9633569 114.407641,-34.6220396 113.617221,-34.6220396 Z M158.029679,-43.6729378 C159.17446,-43.6729378 160.117221,-42.769712 160.117221,-41.6729378 C160.117221,-40.5761636 159.17446,-39.6729378 158.029679,-39.6729378 L158.029679,-39.6729378 L132.204764,-39.6729378 C131.059982,-39.6729378 130.117221,-40.5761636 130.117221,-41.6729378 C130.117221,-42.769712 131.059982,-43.6729378 132.204764,-43.6729378 L132.204764,-43.6729378 Z M19.0296793,-43.6729378 C20.1744605,-43.6729378 21.1172214,-42.769712 21.1172214,-41.6729378 C21.1172214,-40.5761636 20.1744605,-39.6729378 19.0296793,-39.6729378 L19.0296793,-39.6729378 L-6.79523649,-39.6729378 C-7.97368767,-39.6729378 -8.88277858,-40.5761636 -8.88277858,-41.6729378 C-8.88277858,-42.769712 -7.94001764,-43.6729378 -6.79523649,-43.6729378 L-6.79523649,-43.6729378 Z M-15.8827786,-43.6729378 C-14.7782091,-43.6729378 -13.8827786,-42.7775073 -13.8827786,-41.6729378 C-13.8827786,-40.5683683 -14.7782091,-39.6729378 -15.8827786,-39.6729378 C-16.9873481,-39.6729378 -17.8827786,-40.5683683 -17.8827786,-41.6729378 C-17.8827786,-42.7775073 -16.9873481,-43.6729378 -15.8827786,-43.6729378 Z M167.117221,-43.6729378 C168.221791,-43.6729378 169.117221,-42.7775073 169.117221,-41.6729378 C169.117221,-40.5683683 168.221791,-39.6729378 167.117221,-39.6729378 C166.012652,-39.6729378 165.117221,-40.5683683 165.117221,-41.6729378 C165.117221,-42.7775073 166.012652,-43.6729378 167.117221,-43.6729378 Z" fill="#00C7FF" fill-rule="nonzero" opacity="0.242926897" mask="url(#mask-2)"></path>
            </g>
        </g>
        <path d="M99.0526873,68.9187793 C98.1987199,68.3555263 97.0373244,68.587454 96.4566266,69.4157673 C93.0749159,74.3525143 85.9015903,74.6175745 85.5258447,74.6175745 C85.4575273,74.6175745 85.4233686,74.6175745 85.3550512,74.6175745 C76.5079496,74.6175745 73.1262389,81.9398637 72.9896042,82.2380564 C72.5796998,83.1657673 73.0237629,84.2260082 73.9460476,84.6235986 C74.1851584,84.7229962 74.458428,84.7892612 74.6975388,84.7892612 C75.4148714,84.7892612 76.0980453,84.3916709 76.4054735,83.6958877 C76.4396322,83.6296227 78.7624234,78.5934781 84.7401947,78.2621528 L84.7401947,87.6386588 C84.5010839,89.6597432 83.5104817,91.2501046 81.7683884,92.4428757 C79.9579776,93.6687793 77.5327104,94.2982974 74.5609041,94.2982974 C71.0083999,94.2982974 68.104911,93.1055263 65.9529133,90.7531167 C63.7667569,88.400707 62.6736787,85.0543215 62.6736787,80.7470926 L62.7078374,70.4097432 C62.8786309,66.5995022 63.9375504,63.584442 65.9529133,61.4308275 C68.1390697,59.0784179 71.0083999,57.8856468 74.5609041,57.8856468 C77.5327104,57.8856468 79.9579776,58.5151649 81.7683884,59.7410685 C83.5787991,60.9669721 84.6035599,62.6567311 84.7743534,64.8434781 C84.7743534,64.9097432 84.7743534,65.0091408 84.7743534,65.0754058 C84.7743534,66.334442 85.8332729,67.3615504 87.1313032,67.3615504 C88.4293336,67.3615504 89.4882531,66.334442 89.4882531,65.0754058 C89.4882531,65.0091408 89.4882531,64.9097432 89.4882531,64.8434781 C89.1466662,61.5633576 87.609525,58.9790203 84.8426708,57.024201 C82.0758166,55.0693817 78.6257886,54.1085384 74.458428,54.1085384 C69.5054174,54.1085384 65.5088503,55.6988998 62.4687266,58.8464902 C59.5993963,61.7952853 58.0964138,65.6717914 57.9256203,70.4428757 C57.9256203,70.774201 57.8914616,71.1055263 57.8914616,71.4368516 L57.9256203,80.7470926 L57.8914616,80.7470926 C57.8914616,86.0151649 59.4286029,90.2229962 62.4687266,93.3705865 C65.5088503,96.5181769 69.5054174,98.1085384 74.458428,98.1085384 C78.6257886,98.1085384 82.0758166,97.147695 84.8426708,95.1928757 C87.3704141,93.4037191 88.8733966,91.0513094 89.385777,88.1356468 L89.4882531,77.7320323 C92.5966942,77.0031167 96.8323722,75.3464902 99.4967503,71.4368516 C100.179924,70.6085384 99.9408133,69.4820323 99.0526873,68.9187793 Z" id="Path" fill="#FFFFFF" fill-rule="nonzero"></path>
    </g>
</svg>